<svg width="141" height="36" viewBox="0 0 141 36" fill="none" xmlns="http://www.w3.org/2000/svg">
<g filter="url(#filter0_d_726_154)">
<g filter="url(#filter1_b_726_154)">
<path d="M13.0921 20.8186L4.8623 15.9619L13.0871 27.5563L21.321 15.9619L13.0871 20.8186H13.0921ZM13.2144 0.745605L4.98798 14.3994L13.2144 19.2645L21.4442 14.4044L13.2144 0.745605Z" fill="url(#paint0_linear_726_154)"/>
</g>
<path d="M23.7074 24.0625C23.2033 24.0625 22.739 23.9365 22.3146 23.6844C21.9033 23.4324 21.5717 23.1008 21.3196 22.6895C21.0676 22.265 20.9416 21.8007 20.9416 21.2966V12.5016C20.9416 11.9975 21.0676 11.5399 21.3196 11.1286C21.5717 10.7041 21.9033 10.3659 22.3146 10.1138C22.739 9.86177 23.2033 9.73575 23.7074 9.73575H32.5025C33.0066 9.73575 33.4642 9.86177 33.8754 10.1138C34.2999 10.3659 34.6382 10.7041 34.8903 11.1286C35.1423 11.5399 35.2683 11.9975 35.2683 12.5016V21.2966C35.2683 21.8007 35.1423 22.265 34.8903 22.6895C34.6382 23.1008 34.2999 23.4324 33.8754 23.6844C33.4642 23.9365 33.0066 24.0625 32.5025 24.0625H23.7074ZM23.8069 21.416H32.3632C32.4295 21.416 32.4892 21.3961 32.5423 21.3563C32.5953 21.3033 32.6219 21.2436 32.6219 21.1773V12.621C32.6219 12.5547 32.5953 12.5016 32.5423 12.4618C32.4892 12.4087 32.4295 12.3822 32.3632 12.3822H23.8069C23.7406 12.3822 23.6809 12.4087 23.6278 12.4618C23.588 12.5016 23.5681 12.5547 23.5681 12.621V21.1773C23.5681 21.2436 23.588 21.3033 23.6278 21.3563C23.6809 21.3961 23.7406 21.416 23.8069 21.416ZM39.834 24.0625C39.33 24.0625 38.8723 23.9365 38.4611 23.6844C38.0498 23.4324 37.7182 23.1008 37.4661 22.6895C37.2141 22.2783 37.0881 21.8206 37.0881 21.3165V15.2675C37.0881 14.7634 37.2141 14.3057 37.4661 13.8945C37.7182 13.4833 38.0498 13.1516 38.4611 12.8996C38.8723 12.6475 39.33 12.5215 39.834 12.5215H48.7883V15.1282H39.9335C39.8672 15.1282 39.8075 15.1547 39.7545 15.2078C39.7147 15.2476 39.6948 15.3006 39.6948 15.367V21.217C39.6948 21.2834 39.7147 21.3431 39.7545 21.3961C39.8075 21.4359 39.8672 21.4558 39.9335 21.4558H48.8082V24.0625H39.834ZM53.1643 24.0625C52.6602 24.0625 52.2026 23.9365 51.7913 23.6844C51.3801 23.4324 51.0485 23.1008 50.7964 22.6895C50.5444 22.2783 50.4184 21.8206 50.4184 21.3165V15.2675C50.4184 14.7634 50.5444 14.3057 50.7964 13.8945C51.0485 13.4833 51.3801 13.1516 51.7913 12.8996C52.2026 12.6475 52.6602 12.5215 53.1643 12.5215H59.3925C59.8966 12.5215 60.3542 12.6475 60.7655 12.8996C61.19 13.1516 61.5216 13.4833 61.7604 13.8945C62.0124 14.3057 62.1384 14.7634 62.1384 15.2675V19.6053H53.025V21.217C53.025 21.2834 53.0449 21.3431 53.0847 21.3961C53.1378 21.4359 53.1975 21.4558 53.2638 21.4558H62.1384V24.0625H53.1643ZM53.025 17.2573H59.5318V15.367C59.5318 15.3006 59.5052 15.2476 59.4522 15.2078C59.4124 15.1547 59.3593 15.1282 59.293 15.1282H53.2638C53.1975 15.1282 53.1378 15.1547 53.0847 15.2078C53.0449 15.2476 53.025 15.3006 53.025 15.367V17.2573ZM66.9614 24.0625C66.4574 24.0625 65.9931 23.9365 65.5686 23.6844C65.1573 23.4324 64.8257 23.1008 64.5736 22.6895C64.3349 22.2783 64.2155 21.8206 64.2155 21.3165V16.9787H73.3289V15.367C73.3289 15.3006 73.3024 15.2476 73.2493 15.2078C73.2095 15.1547 73.1564 15.1282 73.0901 15.1282H64.2155V12.5215H73.1896C73.6937 12.5215 74.1513 12.6475 74.5626 12.8996C74.9871 13.1516 75.3187 13.4833 75.5575 13.8945C75.8095 14.3057 75.9356 14.7634 75.9356 15.2675V24.0625H66.9614ZM67.0609 21.4558H73.3289V19.3267H66.8222V21.217C66.8222 21.2834 66.8421 21.3431 66.8818 21.3961C66.9349 21.4359 66.9946 21.4558 67.0609 21.4558ZM77.8576 24.0625V12.5215H86.8317C87.3358 12.5215 87.7935 12.6475 88.2047 12.8996C88.6292 13.1516 88.9608 13.4833 89.1996 13.8945C89.4517 14.3057 89.5777 14.7634 89.5777 15.2675V24.0625H86.971V15.367C86.971 15.3006 86.9445 15.2476 86.8914 15.2078C86.8516 15.1547 86.7986 15.1282 86.7322 15.1282H80.7031C80.6367 15.1282 80.577 15.1547 80.524 15.2078C80.4842 15.2476 80.4643 15.3006 80.4643 15.367V24.0625H77.8576Z" fill="white" fill-opacity="0.6"/>
<path d="M91.7523 24.0625V9.73575H94.6376L103.433 20.2022V9.73575H106.079V24.0625H103.194L94.3789 13.5761V24.0625H91.7523ZM108.348 24.0625V9.73575H121.541V12.3822H110.995V15.5659H119.471V18.2323H110.995V24.0625H108.348ZM128.016 24.0625V12.3822H122.166V9.73575H136.493V12.3822H130.662V24.0625H128.016Z" fill="white"/>
</g>
<defs>
<filter id="filter0_d_726_154" x="0.862305" y="0.745605" width="139.63" height="34.8108" filterUnits="userSpaceOnUse" color-interpolation-filters="sRGB">
<feFlood flood-opacity="0" result="BackgroundImageFix"/>
<feColorMatrix in="SourceAlpha" type="matrix" values="0 0 0 0 0 0 0 0 0 0 0 0 0 0 0 0 0 0 127 0" result="hardAlpha"/>
<feOffset dy="4"/>
<feGaussianBlur stdDeviation="2"/>
<feComposite in2="hardAlpha" operator="out"/>
<feColorMatrix type="matrix" values="0 0 0 0 0 0 0 0 0 0 0 0 0 0 0 0 0 0 0.25 0"/>
<feBlend mode="normal" in2="BackgroundImageFix" result="effect1_dropShadow_726_154"/>
<feBlend mode="normal" in="SourceGraphic" in2="effect1_dropShadow_726_154" result="shape"/>
</filter>
<filter id="filter1_b_726_154" x="-207.386" y="-211.503" width="441.078" height="451.307" filterUnits="userSpaceOnUse" color-interpolation-filters="sRGB">
<feFlood flood-opacity="0" result="BackgroundImageFix"/>
<feGaussianBlur in="BackgroundImage" stdDeviation="106.124"/>
<feComposite in2="SourceAlpha" operator="in" result="effect1_backgroundBlur_726_154"/>
<feBlend mode="normal" in="SourceGraphic" in2="effect1_backgroundBlur_726_154" result="shape"/>
</filter>
<linearGradient id="paint0_linear_726_154" x1="4.8623" y1="0.745605" x2="25.0134" y2="1.23055" gradientUnits="userSpaceOnUse">
<stop offset="0.183111" stop-color="#FF56F6"/>
<stop offset="0.432593" stop-color="#B936EE"/>
<stop offset="0.854443" stop-color="#3BACE2"/>
<stop offset="1" stop-color="#406AFF"/>
</linearGradient>
</defs>
</svg>
