<svg width="10" height="6" viewBox="0 0 10 6" fill="none" xmlns="http://www.w3.org/2000/svg">
<path d="M9.34536 0.870336C9.34568 0.982247 9.32492 1.09282 9.28461 1.19393C9.24431 1.29504 9.18547 1.38413 9.11243 1.45463L5.33519 5.07275C5.22254 5.18293 5.08125 5.24316 4.93543 5.24316C4.78961 5.24316 4.64832 5.18293 4.53567 5.07275L0.758429 1.32728C0.629866 1.20013 0.549018 1.01742 0.53367 0.819341C0.518322 0.621261 0.569731 0.424039 0.676588 0.271061C0.783446 0.118084 0.936998 0.021882 1.10346 0.00361917C1.26993 -0.0146432 1.43568 0.0465288 1.56424 0.173679L4.93858 3.52213L8.31291 0.286043C8.40532 0.194441 8.51785 0.136254 8.63717 0.118366C8.7565 0.100478 8.87764 0.123638 8.98625 0.185105C9.09487 0.246573 9.18641 0.343775 9.25005 0.465211C9.31369 0.586647 9.34677 0.727234 9.34536 0.870336Z" fill="#FF56F6"/>
</svg>
