<svg width="92" height="29" viewBox="0 0 92 29" fill="none" xmlns="http://www.w3.org/2000/svg">
<path fill-rule="evenodd" clip-rule="evenodd" d="M30.5651 14.2062C30.4532 12.9242 29.4657 11.7539 28.1058 11.7539C26.7459 11.7539 25.7773 12.9242 25.6471 14.2062H30.5645H30.5651ZM31.1234 14.4609C31.1228 14.5317 31.0941 14.5994 31.0435 14.6492C30.993 14.699 30.9247 14.7267 30.8537 14.7264H25.6471C25.7773 16.009 26.7459 17.1794 28.1058 17.1794C29.0371 17.1794 29.7268 16.8262 30.2484 16.0828C30.3241 15.9815 30.4349 15.9151 30.58 15.9764C30.6133 15.9912 30.6429 16.0128 30.6671 16.04C30.6913 16.0671 30.7094 16.099 30.7203 16.1337C30.7311 16.1683 30.7345 16.2049 30.7301 16.2409C30.7257 16.2769 30.7137 16.3116 30.6948 16.3426C30.1738 17.2538 29.1306 17.699 28.1058 17.699C26.3551 17.699 25.1066 16.1389 25.1066 14.4666C25.1066 12.7943 26.3551 11.2337 28.1058 11.2337C29.8553 11.2337 31.1205 12.7903 31.124 14.4609H31.1234ZM37.4386 11.3636C37.5878 11.3636 37.6997 11.494 37.6997 11.624C37.6997 11.7728 37.5878 11.8838 37.4386 11.8838H36.0414V17.3465C36.04 17.4149 36.012 17.4802 35.9635 17.5286C35.915 17.577 35.8496 17.6048 35.7809 17.6063C35.7122 17.605 35.6466 17.5772 35.598 17.5288C35.5493 17.4803 35.5213 17.415 35.5198 17.3465V11.8838H34.1789C34.1444 11.8847 34.1101 11.8785 34.0781 11.8658C34.0461 11.853 34.017 11.8339 33.9926 11.8096C33.9681 11.7853 33.9489 11.7564 33.9361 11.7245C33.9232 11.6925 33.917 11.6583 33.9178 11.624C33.9178 11.494 34.0297 11.3636 34.1789 11.3636H35.5198V9.36392C35.5198 9.23801 35.6059 9.12126 35.7304 9.10123C35.9037 9.07262 36.0414 9.19223 36.0414 9.35705V11.3636H37.4386V11.3636ZM45.9515 14.0019V17.3098C45.9515 17.4581 45.8212 17.5691 45.6904 17.5691C45.656 17.5699 45.6218 17.5637 45.5898 17.5509C45.5578 17.5381 45.5288 17.519 45.5045 17.4947C45.4801 17.4704 45.461 17.4415 45.4481 17.4096C45.4353 17.3777 45.4291 17.3436 45.4299 17.3093V14.0019C45.4299 12.887 44.7964 11.7722 43.5484 11.7722C41.9464 11.7722 41.2573 13.1658 41.3508 14.5965C41.3508 14.6337 41.3691 14.8008 41.3691 14.8197V17.3024C41.3691 17.4283 41.2831 17.5451 41.1591 17.5657C40.9853 17.5937 40.8476 17.4741 40.8476 17.3093V6.44C40.8476 6.31009 40.9594 6.18018 41.1081 6.18018C41.2572 6.18018 41.3691 6.31009 41.3691 6.44V12.59C41.8167 11.7911 42.6171 11.252 43.5484 11.252C45.0759 11.252 45.9515 12.59 45.9515 14.0019ZM54.7254 14.2062C54.6135 12.9242 53.626 11.7539 52.2661 11.7539C50.9062 11.7539 49.9377 12.9242 49.8074 14.2062H54.7249H54.7254ZM55.2837 14.4609C55.2831 14.5317 55.2544 14.5994 55.2039 14.6492C55.1533 14.699 55.0851 14.7267 55.014 14.7264H49.8074C49.9377 16.009 50.9062 17.1794 52.2661 17.1794C53.198 17.1794 53.8871 16.8262 54.4087 16.0828C54.4844 15.9815 54.5952 15.9151 54.7403 15.9764C54.7736 15.9912 54.8033 16.0128 54.8275 16.04C54.8516 16.0671 54.8698 16.099 54.8806 16.1337C54.8915 16.1683 54.8948 16.2049 54.8904 16.2409C54.886 16.2769 54.874 16.3116 54.8551 16.3426C54.3341 17.2538 53.2909 17.699 52.2661 17.699C50.5155 17.699 49.2675 16.1389 49.2675 14.4666C49.2675 12.7943 50.5155 11.2337 52.2661 11.2337C54.0156 11.2337 55.2809 12.7903 55.2843 14.4609H55.2837ZM61.6735 11.6051C61.6735 11.7728 61.5806 11.8655 61.4314 11.8838C59.9039 12.107 59.2148 13.3518 59.2148 14.8008V17.2841C59.2148 17.41 59.1288 17.5262 59.0042 17.5468C58.831 17.5748 58.6927 17.4552 58.6927 17.2904V11.6303C58.6927 11.5044 58.7787 11.3882 58.9032 11.3676C59.0771 11.3395 59.2148 11.4591 59.2148 11.624V12.776C59.6429 12.0509 60.5001 11.3641 61.3941 11.3641C61.5244 11.3641 61.6735 11.4569 61.6735 11.6051ZM69.6648 14.2062C69.5529 12.9242 68.566 11.7539 67.2061 11.7539C65.8462 11.7539 64.8776 12.9242 64.7474 14.2062H69.6648ZM70.2237 14.4609C70.2229 14.5317 70.1942 14.5993 70.1437 14.649C70.0932 14.6988 70.025 14.7266 69.954 14.7264H64.7474C64.8776 16.009 65.8462 17.1794 67.2061 17.1794C68.1374 17.1794 68.8265 16.8262 69.3481 16.0828C69.4244 15.9815 69.5351 15.9151 69.6803 15.9764C69.7185 15.9929 69.7521 16.0186 69.7778 16.0513C69.8036 16.084 69.8207 16.1225 69.8278 16.1635C69.8396 16.2254 69.8279 16.2894 69.7951 16.3432C69.2735 17.2532 68.2303 17.6996 67.2061 17.6996C65.4549 17.6996 64.2074 16.1389 64.2074 14.466C64.2074 12.7943 65.4549 11.2337 67.2061 11.2337C68.955 11.2337 70.2208 12.7903 70.2243 14.4609H70.2237ZM78.6247 11.6709V17.3465C78.6247 17.4953 78.4944 17.6063 78.3642 17.6063C78.3297 17.6072 78.2954 17.601 78.2634 17.5883C78.2314 17.5755 78.2023 17.5564 78.1778 17.5321C78.1534 17.5079 78.1342 17.4789 78.1214 17.447C78.1085 17.415 78.1023 17.3808 78.1031 17.3465V16.2688C77.675 17.1233 76.9113 17.7368 75.9422 17.7368C74.3964 17.7368 73.5397 16.3987 73.5397 14.9868V11.6617C73.5397 11.5312 73.651 11.4008 73.8002 11.4008C73.9494 11.4008 74.0613 11.5312 74.0613 11.6612V14.9868C74.0613 16.1017 74.6942 17.2166 75.9422 17.2166C77.6934 17.2166 78.1031 15.5815 78.1031 13.7787V11.6612C78.1037 11.6207 78.1135 11.581 78.132 11.545C78.1504 11.509 78.1769 11.4777 78.2094 11.4536C78.242 11.4295 78.2796 11.4131 78.3195 11.4059C78.3593 11.3986 78.4004 11.4006 78.4393 11.4116C78.4941 11.4291 78.5418 11.4638 78.5752 11.5106C78.6086 11.5573 78.6259 11.6135 78.6247 11.6709V11.6709ZM91.7945 13.9836V17.3087C91.7945 17.4581 91.6642 17.5691 91.534 17.5691C91.4995 17.57 91.4652 17.5638 91.4332 17.5511C91.4012 17.5383 91.3721 17.5192 91.3476 17.4949C91.3232 17.4707 91.304 17.4417 91.2912 17.4098C91.2783 17.3778 91.2721 17.3436 91.2729 17.3093V13.9836C91.2729 12.8687 90.64 11.7728 89.3914 11.7728C87.8272 11.7728 87.2311 13.4445 87.2311 14.7453V17.3093C87.2311 17.4581 87.1008 17.5691 86.97 17.5691C86.9355 17.57 86.9013 17.5638 86.8693 17.5511C86.8373 17.5383 86.8082 17.5192 86.7839 17.4949C86.7595 17.4706 86.7403 17.4416 86.7275 17.4097C86.7148 17.3778 86.7086 17.3436 86.7095 17.3093V13.9836C86.7095 12.8687 86.076 11.7728 84.828 11.7728C83.2443 11.7728 82.5925 13.0175 82.6481 14.6709C82.6481 14.7081 82.6671 14.7825 82.6481 14.8008V17.303C82.6481 17.4289 82.5626 17.5445 82.4381 17.5651C82.2643 17.5937 82.1266 17.4735 82.1266 17.3093V11.6308C82.1266 11.5049 82.2126 11.3882 82.3371 11.3676C82.5104 11.3395 82.6481 11.4591 82.6481 11.624V12.5711C83.0957 11.7728 83.8967 11.2525 84.8286 11.2525C85.8895 11.2525 86.7095 11.921 87.0446 12.9059C87.4726 11.9399 88.3109 11.252 89.3914 11.252C90.9189 11.252 91.7945 12.5711 91.7945 13.9836" fill="white" fill-opacity="0.5"/>
<path fill-rule="evenodd" clip-rule="evenodd" d="M0.187622 15.0148L8.8864 20.1438V0.618408L0.187622 15.0148Z" fill="white" fill-opacity="0.5"/>
<path fill-rule="evenodd" clip-rule="evenodd" d="M8.88708 0.618408V20.1438L17.5859 15.0148L8.88708 0.618408Z" fill="white" fill-opacity="0.5"/>
<path fill-rule="evenodd" clip-rule="evenodd" d="M8.88697 11.0715L0.187622 15.0147L8.88639 20.1437L17.5857 15.0153L8.88697 11.0715Z" fill="white" fill-opacity="0.5"/>
<path fill-rule="evenodd" clip-rule="evenodd" d="M8.88697 11.0715L0.187622 15.0147L8.88639 20.1437L8.88697 11.0715Z" fill="white" fill-opacity="0.5"/>
<path fill-rule="evenodd" clip-rule="evenodd" d="M0.187622 16.6602L8.8864 28.8869V21.7863L0.187622 16.6602Z" fill="white" fill-opacity="0.5"/>
<path fill-rule="evenodd" clip-rule="evenodd" d="M8.88708 21.7863V28.8875L17.5916 16.6602L8.88708 21.7863Z" fill="white" fill-opacity="0.5"/>
</svg>
