<svg width="463" height="284" viewBox="0 0 463 284" fill="none" xmlns="http://www.w3.org/2000/svg">
<g filter="url(#filter0_bd_2_355)">
<path d="M353.274 107.621C353.274 106.4 352.284 105.41 351.063 105.41H145.869C145.542 105.41 145.218 105.483 144.922 105.623L104.705 124.682C103.933 125.048 103.44 125.826 103.44 126.68V167.316C103.44 168.537 104.43 169.527 105.651 169.527H318.311C318.647 169.527 318.979 169.45 319.281 169.302L352.034 153.303C352.793 152.933 353.274 152.162 353.274 151.317V107.621Z" fill="url(#paint0_linear_2_355)"/>
<path d="M351.063 104.305C352.895 104.305 354.38 105.789 354.38 107.621V151.317C354.38 152.584 353.658 153.741 352.519 154.297L319.767 170.296C319.313 170.517 318.816 170.632 318.311 170.632H105.651C103.82 170.632 102.335 169.147 102.335 167.316V126.68C102.335 125.398 103.073 124.232 104.231 123.683L144.449 104.624C144.893 104.414 145.378 104.305 145.869 104.305H351.063Z" stroke="url(#paint1_linear_2_355)" stroke-width="2.21092"/>
</g>
<path d="M172.028 145.308V130.981H185.22V133.628H174.674V136.812H183.151V139.478H174.674V142.662H185.22V145.308H172.028ZM187.023 145.308V144.612L191.262 139.438L187.023 134.464V133.767H189.849L192.953 137.428L196.057 133.767H198.883V134.464L194.644 139.438L198.883 144.612V145.308H196.077L192.953 141.488L189.849 145.308H187.023ZM200.96 149.885V133.767H209.934C210.438 133.767 210.896 133.893 211.307 134.145C211.731 134.397 212.063 134.729 212.302 135.14C212.554 135.551 212.68 136.009 212.68 136.513V142.562C212.68 143.066 212.554 143.524 212.302 143.935C212.063 144.346 211.731 144.678 211.307 144.93C210.896 145.182 210.438 145.308 209.934 145.308H203.566V149.885H200.96ZM203.805 142.701H209.834C209.901 142.701 209.954 142.682 209.994 142.642C210.047 142.589 210.073 142.529 210.073 142.463V136.613C210.073 136.546 210.047 136.493 209.994 136.453C209.954 136.4 209.901 136.374 209.834 136.374H203.805C203.739 136.374 203.679 136.4 203.626 136.453C203.586 136.493 203.566 136.546 203.566 136.613V142.463C203.566 142.529 203.586 142.589 203.626 142.642C203.679 142.682 203.739 142.701 203.805 142.701ZM216.88 145.308C216.376 145.308 215.918 145.182 215.507 144.93C215.095 144.678 214.764 144.346 214.512 143.935C214.26 143.524 214.134 143.066 214.134 142.562V129.967H216.76V142.463C216.76 142.529 216.78 142.589 216.82 142.642C216.873 142.682 216.933 142.701 216.999 142.701H219.208V145.308H216.88ZM223.428 145.308C222.924 145.308 222.466 145.182 222.055 144.93C221.643 144.678 221.312 144.346 221.06 143.935C220.808 143.524 220.682 143.066 220.682 142.562V136.513C220.682 136.009 220.808 135.551 221.06 135.14C221.312 134.729 221.643 134.397 222.055 134.145C222.466 133.893 222.924 133.767 223.428 133.767H229.656C230.16 133.767 230.618 133.893 231.029 134.145C231.453 134.397 231.785 134.729 232.024 135.14C232.276 135.551 232.402 136.009 232.402 136.513V142.562C232.402 143.066 232.276 143.524 232.024 143.935C231.785 144.346 231.46 144.678 231.049 144.93C230.637 145.182 230.173 145.308 229.656 145.308H223.428ZM223.527 142.701H229.556C229.623 142.701 229.676 142.682 229.716 142.642C229.769 142.589 229.795 142.529 229.795 142.463V136.613C229.795 136.546 229.769 136.493 229.716 136.453C229.676 136.4 229.623 136.374 229.556 136.374H223.527C223.461 136.374 223.401 136.4 223.348 136.453C223.308 136.493 223.288 136.546 223.288 136.613V142.463C223.288 142.529 223.308 142.589 223.348 142.642C223.401 142.682 223.461 142.701 223.527 142.701ZM234.032 145.308V136.513C234.032 136.009 234.158 135.551 234.41 135.14C234.662 134.729 234.994 134.397 235.405 134.145C235.829 133.893 236.287 133.767 236.778 133.767H243.185V136.374H236.877C236.811 136.374 236.751 136.4 236.698 136.453C236.658 136.493 236.639 136.546 236.639 136.613V145.308H234.032ZM247.29 145.308C246.786 145.308 246.328 145.182 245.917 144.93C245.506 144.678 245.174 144.346 244.922 143.935C244.67 143.524 244.544 143.066 244.544 142.562V136.513C244.544 136.009 244.67 135.551 244.922 135.14C245.174 134.729 245.506 134.397 245.917 134.145C246.328 133.893 246.786 133.767 247.29 133.767H253.518C254.022 133.767 254.48 133.893 254.891 134.145C255.316 134.397 255.647 134.729 255.886 135.14C256.138 135.551 256.264 136.009 256.264 136.513V140.851H247.151V142.463C247.151 142.529 247.171 142.589 247.21 142.642C247.264 142.682 247.323 142.701 247.39 142.701H256.264V145.308H247.29ZM247.151 138.503H253.658V136.613C253.658 136.546 253.631 136.493 253.578 136.453C253.538 136.4 253.485 136.374 253.419 136.374H247.39C247.323 136.374 247.264 136.4 247.21 136.453C247.171 136.493 247.151 136.546 247.151 136.613V138.503Z" fill="white"/>
<path d="M312.372 144.101L317.9 138.574L312.372 133.046L313.478 130.835L321.216 138.574L313.478 146.312L312.372 144.101Z" fill="white"/>
<line x1="317.9" y1="138.574" x2="269.259" y2="138.574" stroke="white" stroke-width="2.21092"/>
<defs>
<filter id="filter0_bd_2_355" x="-111.019" y="-109.049" width="678.752" height="493.035" filterUnits="userSpaceOnUse" color-interpolation-filters="sRGB">
<feFlood flood-opacity="0" result="BackgroundImageFix"/>
<feGaussianBlur in="BackgroundImage" stdDeviation="106.124"/>
<feComposite in2="SourceAlpha" operator="in" result="effect1_backgroundBlur_2_355"/>
<feColorMatrix in="SourceAlpha" type="matrix" values="0 0 0 0 0 0 0 0 0 0 0 0 0 0 0 0 0 0 127 0" result="hardAlpha"/>
<feOffset dy="4.42184"/>
<feGaussianBlur stdDeviation="53.6148"/>
<feComposite in2="hardAlpha" operator="out"/>
<feColorMatrix type="matrix" values="0 0 0 0 1 0 0 0 0 0.337255 0 0 0 0 0.964706 0 0 0 0.51 0"/>
<feBlend mode="normal" in2="effect1_backgroundBlur_2_355" result="effect2_dropShadow_2_355"/>
<feBlend mode="normal" in="SourceGraphic" in2="effect2_dropShadow_2_355" result="shape"/>
</filter>
<linearGradient id="paint0_linear_2_355" x1="353.274" y1="105.41" x2="56.3144" y2="150.434" gradientUnits="userSpaceOnUse">
<stop offset="0.183111" stop-color="#FF56F6"/>
<stop offset="0.432593" stop-color="#B936EE"/>
<stop offset="0.854443" stop-color="#3BACE2"/>
<stop offset="1" stop-color="#406AFF"/>
</linearGradient>
<linearGradient id="paint1_linear_2_355" x1="99.0659" y1="169.527" x2="361.88" y2="124.382" gradientUnits="userSpaceOnUse">
<stop offset="0.473958" stop-color="#FFA6FA"/>
<stop offset="0.96875" stop-color="#3C79D5"/>
</linearGradient>
</defs>
</svg>
