<svg width="255" height="69" viewBox="0 0 255 69" fill="none" xmlns="http://www.w3.org/2000/svg">
<g filter="url(#filter0_b_2_356)">
<path d="M252.274 4.62108C252.274 3.40002 251.284 2.41016 250.063 2.41016H44.8691C44.5416 2.41016 44.2182 2.4829 43.9223 2.62314L3.70456 21.6819C2.93259 22.0477 2.44044 22.8255 2.44044 23.6798V64.3159C2.44044 65.5369 3.4303 66.5268 4.65137 66.5268H217.311C217.647 66.5268 217.979 66.4501 218.281 66.3024L251.034 50.3035C251.793 49.9327 252.274 49.1617 252.274 48.3169V4.62108Z" fill="url(#paint0_linear_2_356)"/>
<path d="M250.063 1.3047C251.895 1.3047 253.38 2.78949 253.38 4.62108V48.3169C253.38 49.5841 252.658 50.7406 251.519 51.2968L218.767 67.2957C218.313 67.5172 217.816 67.6323 217.311 67.6323H4.65137C2.81976 67.6323 1.33499 66.1475 1.33499 64.3159V23.6798C1.33499 22.3984 2.0732 21.2317 3.23116 20.6829L43.4489 1.62418C43.8928 1.41382 44.3779 1.3047 44.8691 1.3047H250.063Z" stroke="url(#paint1_linear_2_356)" stroke-width="2.21092"/>
</g>
<defs>
<filter id="filter0_b_2_356" x="-212.019" y="-212.049" width="678.752" height="493.035" filterUnits="userSpaceOnUse" color-interpolation-filters="sRGB">
<feFlood flood-opacity="0" result="BackgroundImageFix"/>
<feGaussianBlur in="BackgroundImage" stdDeviation="106.124"/>
<feComposite in2="SourceAlpha" operator="in" result="effect1_backgroundBlur_2_356"/>
<feBlend mode="normal" in="SourceGraphic" in2="effect1_backgroundBlur_2_356" result="shape"/>
</filter>
<linearGradient id="paint0_linear_2_356" x1="252.274" y1="2.41016" x2="-44.6856" y2="47.4342" gradientUnits="userSpaceOnUse">
<stop offset="0.183111" stop-color="#FF56F6"/>
<stop offset="0.432593" stop-color="#B936EE"/>
<stop offset="0.854443" stop-color="#3BACE2"/>
<stop offset="1" stop-color="#406AFF"/>
</linearGradient>
<linearGradient id="paint1_linear_2_356" x1="-1.93408" y1="66.5268" x2="260.88" y2="21.3818" gradientUnits="userSpaceOnUse">
<stop offset="0.473958" stop-color="#FFA6FA"/>
<stop offset="0.96875" stop-color="#3C79D5"/>
</linearGradient>
</defs>
</svg>
